<svg width="276" height="93" viewBox="0 0 276 93" fill="none" xmlns="http://www.w3.org/2000/svg">
<path d="M72 49C72 29.1178 55.8823 13 36 13C16.1178 13 0 29.1178 0 49C0 68.8823 16.1178 85 36 85C55.8823 85 72 68.8823 72 49Z" fill="#008773"/>
<path d="M43 55.7268C43 53.6718 41.01 52 38.5635 52C38.4698 52 38.377 52.0034 38.2849 52.008V52.4801C38.3773 52.4746 38.4693 52.468 38.5635 52.468C40.7024 52.468 42.4423 53.93 42.4423 55.7268C42.4423 57.5235 40.7024 58.9852 38.5635 58.9852C38.5007 58.9852 38.4396 58.9799 38.3778 58.9773V59.1531V59.4492V60.3757H37V61H40.1269V60.3757H38.9348V59.4392C41.2082 59.2799 43 57.6764 43 55.7268Z" fill="#00CAB2"/>
<path d="M71.9885 48.6309C71.979 47.5772 71.9254 46.5334 71.8268 45.5032C71.4914 42.0718 70.6735 38.7836 69.4407 35.7017C69.3518 35.4743 69.2675 35.2412 69.1713 35.0138C67.5331 31.1441 65.2314 27.6214 62.4188 24.5805C62.2359 24.3814 62.0486 24.1868 61.861 23.9922C61.3266 23.4404 60.7851 22.9 60.2158 22.3843C53.8173 16.5565 45.3155 13 36.0001 13C26.6064 13 18.0435 16.6223 11.6263 22.5357C10.1309 23.9137 8.75761 25.4208 7.50954 27.031C2.80778 33.1152 0 40.7348 0 49.0001C0 68.8491 16.1497 85 36.0001 85C49.9644 85 62.0862 77.0031 68.0533 65.3525C69.3282 62.8658 70.3221 60.2103 70.9921 57.4259C71.1611 56.7228 71.311 56.0103 71.4375 55.2907C71.8009 53.2459 72 51.1434 72 48.9978C71.9954 48.8783 71.9885 48.7551 71.9885 48.6309ZM65.2126 34.2426L65.4188 34.0083C65.6929 34.5402 65.9532 35.0782 66.1946 35.6277L65.85 35.6136L65.2103 35.7014V34.2424H65.2126V34.2426ZM60.0094 27.959L60.014 26.3511C60.5812 26.9511 61.1251 27.5686 61.6454 28.2097L60.9984 29.1742L58.7297 29.1517L58.5893 28.6796L60.0094 27.959ZM16.5845 23.9664V23.9055H17.304L17.3696 23.6583H18.5472V24.1727L18.2061 24.6237H16.5819V23.9663H16.5845V23.9664ZM17.7365 25.5719C17.7365 25.5719 18.4582 25.4489 18.5216 25.4489C18.5813 25.4489 18.5216 26.1696 18.5216 26.1696L16.8915 26.2727L16.582 25.9002L17.7365 25.5719ZM67.505 39.8606H64.8706L63.2625 38.6664L61.5751 38.8294V39.8606H61.041L60.4665 39.4504L57.5391 38.71V36.8138L53.8314 37.1008L52.6805 37.7186H51.211L50.4868 37.6458L48.7008 38.6396V40.5063L45.0503 43.1417L45.3528 44.268H46.0945L45.9 45.3402L45.3796 45.5324L45.3528 48.3331L48.5064 51.9285H49.8819L49.964 51.7104H52.4343L53.1465 51.0518H54.5482L55.3172 51.8204L57.4006 52.0362L57.1264 54.8113L59.4468 58.9022L58.2235 61.2366L58.3055 62.3334L59.2687 63.292V65.9336L60.5297 67.6305V69.8288H61.6172C55.5562 77.2749 46.3219 82.0398 35.9931 82.0398C17.7751 82.0398 2.95423 67.2225 2.95423 49.0022C2.95423 44.4167 3.89527 40.0456 5.59217 36.0741V35.0441L6.77326 33.6098C7.18335 32.8339 7.62291 32.0804 8.09293 31.3434L8.14336 31.9433L6.77346 33.6098C6.34823 34.4136 5.94962 35.2341 5.59237 36.0742V37.9527L6.96227 38.6135V41.2268L8.28053 43.4732L9.35289 43.6362L9.49006 42.8663L8.23031 40.9174L7.98077 39.0236H8.72251L9.03659 40.975L10.8624 43.6362L10.3924 44.4976L11.549 46.2717L14.4318 46.9842V46.5191L15.584 46.682L15.4763 47.5046L16.3807 47.6711L17.7823 48.052L19.7592 50.3054L22.2821 50.4952L22.5317 52.5541L20.8009 53.7613L20.7222 55.6L20.4726 56.7272L22.9712 59.8539L23.1623 60.9271C23.1623 60.9271 24.068 61.1709 24.1805 61.1709C24.2885 61.1709 26.2103 62.6288 26.2103 62.6288V68.2819L26.8947 68.4763L26.4319 71.0826L27.5838 72.6225L27.3684 75.21L28.894 77.8867L30.85 79.5953L32.8128 79.635L33.0049 79L31.5599 77.7839L31.6443 77.1815L31.9009 76.4384L31.9559 75.6837L30.9799 75.6554L30.4877 75.0369L31.2987 74.254L31.4089 73.6659L30.5019 73.4057L30.5546 72.8572L31.846 72.6602L33.8088 71.7179L34.4674 70.5063L36.5242 67.8718L36.0577 65.8116L36.6893 64.7146L38.5854 64.7708L39.8616 63.758L40.2754 59.7855L41.6955 57.9949L41.945 56.8442L40.6561 56.4318L39.8041 55.0314L36.8954 55.0021L34.5868 54.1244L34.4791 52.478L33.7104 51.1314L31.6256 51.1022L30.4163 49.2096L29.3475 48.6882L29.2923 49.2647L27.3413 49.3795L26.6289 48.3858L24.5956 47.9732L22.9211 49.9104L20.2854 49.4606L20.0932 46.4897L18.1714 46.1605L18.939 44.704L18.7187 43.8672L16.1909 45.5559L14.6019 45.3613L14.0337 44.1192L14.3841 42.8372L15.2594 41.2224L17.2761 40.1992H21.1739L21.1609 41.3877L22.5625 42.0401L22.45 40.0105L23.46 38.9944L25.4979 37.6549L25.6398 36.7152L27.6708 34.5998L29.8306 33.4022L29.6408 33.2464L31.1044 31.8693L31.6401 32.0111L31.8849 32.3181L32.4418 31.7005L32.5789 31.6408L31.9694 31.5541L31.3474 31.3549V30.7572L31.6765 30.4889H32.3986L32.7324 30.6354L33.0185 31.2119L33.3688 31.1581V31.1088L33.4696 31.1417L34.4824 30.986L34.6264 30.4892L35.2017 30.6356V31.1736L34.6638 31.5404H34.6676L34.7436 32.1309L36.5823 32.6946C36.5823 32.6946 36.5823 32.7016 36.5869 32.7167L37.0063 32.6804L37.0358 31.8859L35.5815 31.2239L35.5016 30.8417L36.7063 30.4316L36.7615 29.2774L35.5016 28.5099L35.4185 26.5597L33.6875 27.4106H33.0535L33.2224 25.927L30.8647 25.3726L29.8931 26.1097V28.3527L28.1437 28.9082L27.4404 30.3695L26.6823 30.4914V28.6199L25.0358 28.3914L24.2096 27.8534L23.8789 26.6417L26.8263 24.919L28.2666 24.4794L28.4119 25.4485L29.217 25.4051L29.2791 24.9187L30.1195 24.7979L30.1336 24.6281L29.7737 24.4792L29.6916 23.966L30.724 23.8793L31.3475 23.2312L31.3839 23.1832L31.391 23.1855L31.5808 22.9887L33.7499 22.7155L34.7073 23.529L32.1924 24.8683L35.3939 25.6242L35.8065 24.5531H37.208L37.7002 23.6201L36.7112 23.3727V22.1915L33.6129 20.8192L31.4706 21.0664L30.26 21.6969L30.3422 23.2356L29.0799 23.0434L28.8855 22.1937L30.0973 21.0945L27.8989 20.9867L27.2686 21.1789L26.9944 21.9206L27.8182 22.059L27.6542 22.8828L26.2551 22.9646L26.0348 23.5144L24.0024 23.5703C24.0024 23.5703 23.9473 22.4182 23.8607 22.4182C23.7822 22.4182 25.4544 22.3889 25.4544 22.3889L26.6638 21.2088L26.004 20.8797L25.1286 21.7316L23.6717 21.6496L22.7837 20.4356H20.9169L18.968 21.89H20.7528L20.9134 22.4138L20.448 22.8519L22.4264 22.9082L22.7264 23.6207L20.5008 23.5386L20.3908 22.989L18.9939 22.6866L18.2497 22.2765L16.5845 22.2903C22.0396 18.3166 28.7451 15.9647 35.9954 15.9647C44.3474 15.9647 51.9846 19.0866 57.8065 24.2182L57.4174 24.919L55.8916 25.5165L55.2473 26.2149L55.3972 27.0257L56.1825 27.1359L56.6581 28.3194L58.0105 27.7722L58.2379 29.3576H57.8254L56.712 29.1925L55.4793 29.3987L54.2838 31.0885L52.5777 31.3545L52.3313 32.8171L53.0533 32.9869L52.8424 33.9279L51.1455 33.5871L49.5916 33.9279L49.261 34.7939L49.5282 36.6115L50.4423 37.038L51.9774 37.0288L53.0109 36.9351L53.3295 36.1124L54.9469 34.01L56.0088 34.2282L57.0564 33.2801L57.2533 34.0219L59.8313 35.761L59.5172 36.1863L58.3547 36.124L58.8046 36.7569L59.5218 36.9162L60.3608 36.5658L60.3421 35.5568L60.717 35.3706L60.4171 35.053L58.6967 34.0931L58.2421 32.8194H59.6742L60.1266 33.2729L61.364 34.3334L61.4131 35.6177L62.6905 36.976L63.1642 35.1139L64.05 34.6309L64.2119 36.1543L65.0766 37.1024L66.7994 37.0744C67.1344 37.9311 67.4345 38.8017 67.6924 39.6924L67.505 39.8606ZM19.6325 29.3581L20.4938 28.9458L21.2767 29.1332L21.0096 30.1843L20.1659 30.4505L19.6325 29.3581ZM24.2215 31.8308V32.5107H22.248L21.5038 32.3033L21.689 31.831L22.6372 31.4397H23.9357V31.831H24.2215V31.8308ZM25.131 32.7789V33.4363L24.6342 33.7551L24.0202 33.871C24.0202 33.871 24.0202 32.882 24.0202 32.7787H25.131V32.7789ZM24.5743 32.5107V31.7253L25.2527 32.3441L24.5743 32.5107ZM24.8835 34.0938V34.7347L24.4102 35.2082H23.359L23.523 34.4875L24.0198 34.4442L24.1206 34.1968L24.8835 34.0938ZM22.2682 32.7789H23.3591L21.9576 34.7347L21.3823 34.4254L21.5065 33.6015L22.2682 32.7789ZM26.7342 33.871V34.5097H25.683L25.3971 34.0938V33.4985H25.4791L26.7342 33.871ZM25.7697 32.9899L26.0673 32.6758L26.5712 32.9899L26.168 33.324L25.7697 32.9899ZM68.0394 41.5292L68.1424 41.4062C68.1892 41.5937 68.2314 41.7812 68.276 41.9689L68.0394 41.5292Z" fill="#00E4CA"/>
<path d="M23.2838 69.2567L32 75C32.0196 71.827 26.2226 59.7554 24.9114 56.793C13.993 30.903 21.1038 9.50069 24.1533 0C15.2792 16.3145 13.713 34.4027 14.0392 41.4075L18.2049 48.5454C17.3594 47.9201 15.4479 46.5151 14.5654 45.8969C14.5508 48.2603 16.7989 54.9924 17.9247 58.063L23.9849 63.3524L19.1243 61.1342L22.6287 67.7208L27.3771 70.1571L23.2838 69.2567Z" fill="url(#paint0_linear)"/>
<path d="M44 52.705L37.6423 75C16.0803 38.1076 22.0764 13.8584 25.2186 0C25.4547 2.8639 28.0655 12.0532 29.3415 16.2898L27.0497 29.0693L31.102 21.8306L42.6505 49.0099L37.9387 60.6898L44 52.705Z" fill="url(#paint1_linear)"/>
<path d="M36.8297 87.0615L42.9998 93C43.0116 91.1059 42.464 86.5057 41.9521 83.2678C36.4709 73.5088 29.8963 61.339 26.9521 53.5623C18.1196 30.2323 21.7633 14.7367 24.4048 0C15.6099 23.8789 19.0725 43.898 24.0636 54.6376C30.7352 68.9936 34.0026 78.2657 36.8297 87.0615Z" fill="url(#paint2_linear)"/>
<path d="M111.759 36.3096H93.9731V40.5716C94.0622 40.5716 94.1334 40.6071 94.1868 40.6781C94.2402 40.7491 94.3025 40.7847 94.3737 40.7847C94.3381 40.7847 94.7031 40.687 95.4687 40.4916C96.2342 40.2786 97.1155 40.0832 98.1125 39.9057C99.1095 39.7281 100.08 39.6393 101.023 39.6393C103.16 39.6393 104.842 39.9323 106.071 40.5183C107.299 41.1044 108.181 41.9301 108.715 42.9955C109.267 44.061 109.596 45.2597 109.703 46.5915C109.827 47.9056 109.89 49.717 109.89 52.0255V62.2808C108.519 61.748 107.54 61.3573 106.952 61.1087C106.382 60.8602 105.946 60.6737 105.644 60.5494C105.644 59.9811 105.528 59.6171 105.296 59.4573C104.709 59.7947 104.05 60.1676 103.32 60.576C102.59 60.9667 101.638 61.313 100.463 61.6148C99.2876 61.9168 97.89 62.0677 96.2699 62.0677C94.7208 62.0677 93.2076 61.7836 91.7298 61.2153C90.2521 60.6471 89.0503 59.839 88.1245 58.7913C87.2165 57.7258 86.7626 56.5271 86.7626 55.1953C86.7626 53.9523 87.3412 52.6559 88.4985 51.3064C89.6557 49.939 91.2046 48.8113 93.1452 47.9234C95.0858 47.0178 97.2045 46.5649 99.5012 46.5649C100.748 46.5649 101.931 46.7514 103.053 47.1243C104.193 47.4795 105.056 47.879 105.644 48.323V45.8724C104.896 44.9134 104.184 44.2652 103.507 43.9278C102.831 43.5904 101.771 43.4218 100.329 43.4218C98.4597 43.4928 96.982 43.6526 95.8959 43.9012C94.8277 44.132 93.6705 44.505 92.4242 45.02C91.1958 45.5172 90.1631 45.9079 89.3263 46.192V44.2209C89.451 44.1143 89.629 43.9634 89.8604 43.768C90.0919 43.5727 90.2432 43.4306 90.3145 43.3418C90.4034 43.253 90.4569 43.1997 90.4746 43.182V36.3096H85V33.1132H111.759V36.3096ZM105.644 53.1709C105.644 52.354 104.718 51.6703 102.866 51.1199C101.032 50.5693 99.7327 50.2941 98.9671 50.2941C97.0265 50.2941 95.2639 50.7025 93.6794 51.5194C92.0948 52.3185 90.8486 53.2597 89.9406 54.3429C89.0325 55.4262 88.5786 56.3141 88.5786 57.0067C88.7922 57.7348 89.3352 58.2408 90.2076 58.525C91.08 58.8091 92.0058 58.9512 92.985 58.9512C94.801 58.9512 96.4746 58.7114 98.0057 58.2319C99.5547 57.7525 100.899 57.1665 102.038 56.4739C103.196 55.7813 104.086 55.1154 104.709 54.4761C105.332 53.8369 105.644 53.4017 105.644 53.1709ZM135.314 36.3096H121.801V57.7525C121.801 58.374 122.014 58.9778 122.442 59.5638C122.887 60.1498 123.367 60.4428 123.884 60.4428C126.536 60.4428 127.863 57.7081 127.863 52.2386L133.231 55.3019C132.359 57.2375 131.165 58.8534 129.652 60.1498C128.156 61.4284 126.18 62.0677 123.723 62.0677C122.495 62.05 121.364 61.7303 120.331 61.1087C119.317 60.4695 118.506 59.6615 117.901 58.6848C117.296 57.6903 116.993 56.7048 116.993 55.728V36.3096H111.412V33.1132H116.993V24.1631L121.801 27.4927V33.1132H135.314V36.3096ZM164.289 36.3096H142.738V44.3274C143.129 43.9012 143.574 43.4306 144.073 42.9156C144.572 42.4006 145.141 41.9123 145.782 41.4506C146.423 40.9889 147.207 40.5893 148.132 40.252C149.058 39.9146 150.1 39.7458 151.257 39.7458C153.447 39.7458 155.379 40.3496 157.053 41.5572C158.744 42.7469 160.061 44.2741 161.004 46.1388C161.949 48.0033 162.42 49.8413 162.42 51.6526C162.42 53.5349 161.966 55.2752 161.058 56.8735C160.15 58.4717 159.242 59.7147 158.334 60.6027C157.426 61.4905 156.75 62.1032 156.304 62.4407L151.925 59.8302C152.174 59.475 152.708 58.8801 153.527 58.0455C154.346 57.2109 155.067 56.3851 155.69 55.5683C156.313 54.7514 156.865 53.7303 157.346 52.505C157.827 51.2797 158.076 49.9034 158.094 48.3762C158.094 46.5116 157.649 45.0022 156.758 43.8479C155.869 42.6759 154.64 42.0899 153.073 42.0899C151.613 42.1431 150.056 42.667 148.399 43.6615C146.761 44.6559 145.382 45.899 144.26 47.3907C143.139 48.8823 142.578 50.3208 142.578 51.7059V62.2808L137.584 59.6171V36.3096H134.646V33.1132H137.584C137.584 30.2364 137.174 27.6615 136.355 25.3885C135.536 23.0977 134.584 21.2153 133.498 19.7414C132.411 18.2675 131.477 17.1754 130.694 16.465C129.893 15.7547 129.314 15.2841 128.958 15.0533L134.352 15C135.652 15.7103 136.952 17.0155 138.252 18.9157C139.569 20.798 140.646 23.0266 141.482 25.6016C142.319 28.1587 142.738 30.6626 142.738 33.1132H164.289V36.3096ZM190.007 36.3096H172.221V40.5716C172.31 40.5716 172.381 40.6071 172.435 40.6781C172.488 40.7491 172.55 40.7847 172.622 40.7847C172.586 40.7847 172.951 40.6781 173.717 40.465C174.5 40.252 175.39 40.0655 176.387 39.9057C177.384 39.7281 178.346 39.6393 179.272 39.6393C181.408 39.6393 183.09 39.9323 184.319 40.5183C185.547 41.1044 186.428 41.9301 186.963 42.9955C187.515 44.061 187.844 45.2597 187.951 46.5915C188.076 47.9056 188.138 49.717 188.138 52.0255V62.5471C187.159 62.1564 186.277 61.7747 185.494 61.4018C184.71 61.0111 184.168 60.727 183.865 60.5494C183.865 59.9633 183.758 59.5994 183.544 59.4573C182.957 59.7947 182.298 60.1676 181.568 60.576C180.838 60.9667 179.885 61.313 178.71 61.6148C177.535 61.9168 176.138 62.0677 174.518 62.0677C172.968 62.0677 171.455 61.7836 169.978 61.2153C168.5 60.6471 167.299 59.839 166.372 58.7913C165.464 57.7258 165.011 56.5271 165.011 55.1953C165.011 53.9523 165.589 52.6559 166.746 51.3064C167.904 49.939 169.453 48.8113 171.393 47.9234C173.334 47.0178 175.452 46.5649 177.75 46.5649C178.996 46.5649 180.18 46.7514 181.301 47.1243C182.423 47.4795 183.277 47.879 183.865 48.323V45.8724C183.171 44.949 182.476 44.3096 181.781 43.9545C181.088 43.5993 180.019 43.4218 178.577 43.4218C176.708 43.4928 175.23 43.6526 174.144 43.9012C173.076 44.132 171.918 44.505 170.672 45.02C169.443 45.5172 168.411 45.9079 167.575 46.192V44.2209C167.699 44.1143 167.877 43.9634 168.108 43.768C168.34 43.5727 168.491 43.4306 168.563 43.3418C168.651 43.253 168.705 43.1997 168.722 43.182V36.3096H163.248V33.1132H190.007V36.3096ZM183.865 53.1709C183.865 52.354 182.948 51.6703 181.114 51.1199C179.28 50.5693 177.981 50.2941 177.215 50.2941C175.275 50.2941 173.503 50.7025 171.901 51.5194C170.316 52.3363 169.07 53.2863 168.162 54.3696C167.254 55.4351 166.8 56.3141 166.8 57.0067C167.049 57.7525 167.601 58.2675 168.455 58.5516C169.328 58.818 170.254 58.9512 171.233 58.9512C173.049 58.9512 174.731 58.7114 176.28 58.2319C177.847 57.7525 179.2 57.1665 180.339 56.4739C181.479 55.7636 182.351 55.0888 182.957 54.4495C183.563 53.8102 183.865 53.384 183.865 53.1709ZM216.446 36.3096H189.447V33.1132H216.446V36.3096ZM214.229 45.8724C214.229 47.0266 213.57 48.2164 212.253 49.4417C210.953 50.667 209.858 51.4927 208.969 51.919L204.962 47.3907C206.458 47.2486 207.713 46.7158 208.728 45.7924C209.761 44.8512 210.277 43.9278 210.277 43.0222C210.277 42.6493 209.983 42.2053 209.395 41.6903C208.808 41.1576 208.042 40.8912 207.099 40.8912C205.941 40.8912 204.633 41.424 203.173 42.4895C201.713 43.555 200.467 44.9311 199.435 46.6182C198.419 48.3052 197.912 50.0011 197.912 51.7059V63L192.785 60.3363V40.6248H197.965V42.6493C198.108 42.5072 198.633 42.1787 199.541 41.6637C200.449 41.1487 201.499 40.687 202.693 40.2786C203.903 39.8524 205.123 39.6393 206.352 39.6393C207.383 39.6393 208.515 39.8967 209.742 40.4117C210.989 40.909 212.049 41.6371 212.921 42.596C213.793 43.555 214.229 44.647 214.229 45.8724ZM250.228 33.1132L250.176 36.3096H247.451V41.3973C247.451 41.4506 246.694 42.8091 245.181 45.4728C243.686 48.1187 241.95 51.1732 239.973 54.636C237.997 58.081 236.582 60.5582 235.727 62.0677C235.14 62.0677 234.259 61.748 233.084 61.1087C231.926 60.4517 230.734 59.5283 229.505 58.3385C228.276 57.1309 227.262 55.7547 226.46 54.2097C225.677 52.6471 225.285 50.9778 225.285 49.202C225.285 48.0477 225.437 47.1332 225.739 46.4583C226.042 45.7835 226.443 45.1176 226.941 44.4606C227.439 43.7858 227.689 43.2708 227.689 42.9156C227.689 42.2941 227.164 41.9834 226.113 41.9834C225.455 41.9834 224.885 42.152 224.404 42.4895C223.941 42.8269 223.176 43.6082 222.108 44.8335L218.662 41.717C219.321 41.1665 219.926 40.7491 220.479 40.465C221.049 40.1809 221.583 39.9944 222.08 39.9057C222.597 39.7991 223.318 39.7281 224.244 39.6925C227.11 39.6925 229.033 40.4206 230.013 41.8768C230.992 43.3152 231.481 45.1532 231.481 47.3907C231.481 47.5682 231.401 48.3851 231.241 49.8413C231.098 51.2797 231.027 52.5405 231.027 53.6238C231.027 56.4295 231.517 57.9567 232.496 58.2053C233.03 58.2053 233.689 57.5305 234.472 56.1809L242.618 41.5039V36.3096H215.565V33.1132H250.228ZM276 36.3096H258.214V40.5716C258.303 40.5716 258.374 40.6071 258.427 40.6781C258.481 40.7491 258.543 40.7847 258.615 40.7847C258.579 40.7847 258.944 40.6781 259.71 40.465C260.493 40.252 261.383 40.0655 262.379 39.9057C263.377 39.7281 264.338 39.6393 265.264 39.6393C267.4 39.6393 269.083 39.9323 270.312 40.5183C271.54 41.1044 272.421 41.9301 272.955 42.9955C273.507 44.061 273.837 45.2597 273.944 46.5915C274.068 47.9056 274.13 49.717 274.13 52.0255V62.5471C273.151 62.1564 272.27 61.7747 271.487 61.4018C270.703 61.0111 270.161 60.727 269.858 60.5494C269.858 59.9633 269.75 59.5994 269.537 59.4573C268.949 59.7947 268.291 60.1676 267.561 60.576C266.831 60.9667 265.878 61.313 264.703 61.6148C263.528 61.9168 262.131 62.0677 260.511 62.0677C258.961 62.0677 257.448 61.7836 255.97 61.2153C254.493 60.6471 253.291 59.839 252.365 58.7913C251.457 57.7258 251.003 56.5271 251.003 55.1953C251.003 53.9523 251.582 52.6559 252.739 51.3064C253.897 49.939 255.445 48.8113 257.386 47.9234C259.327 47.0178 261.445 46.5649 263.742 46.5649C264.988 46.5649 266.172 46.7514 267.294 47.1243C268.416 47.4795 269.27 47.879 269.858 48.323V45.8724C269.163 44.949 268.469 44.3096 267.774 43.9545C267.08 43.5993 266.012 43.4218 264.57 43.4218C262.7 43.4928 261.223 43.6526 260.136 43.9012C259.069 44.132 257.911 44.505 256.665 45.02C255.436 45.5172 254.403 45.9079 253.567 46.192V44.2209C253.691 44.1143 253.869 43.9634 254.101 43.768C254.332 43.5727 254.484 43.4306 254.555 43.3418C254.644 43.253 254.698 43.1997 254.715 43.182V36.3096H249.24V33.1132H276V36.3096ZM269.858 53.1709C269.858 52.354 268.941 51.6703 267.107 51.1199C265.273 50.5693 263.973 50.2941 263.208 50.2941C261.267 50.2941 259.495 50.7025 257.894 51.5194C256.309 52.3363 255.062 53.2863 254.155 54.3696C253.247 55.4351 252.793 56.3141 252.793 57.0067C253.041 57.7525 253.594 58.2675 254.448 58.5516C255.32 58.818 256.247 58.9512 257.226 58.9512C259.041 58.9512 260.724 58.7114 262.273 58.2319C263.84 57.7525 265.193 57.1665 266.332 56.4739C267.471 55.7636 268.344 55.0888 268.949 54.4495C269.555 53.8102 269.858 53.384 269.858 53.1709Z" fill="url(#paint3_linear)"/>
<defs>
<linearGradient id="paint0_linear" x1="10.6623" y1="8.50131" x2="23.9652" y2="60.1569" gradientUnits="userSpaceOnUse">
<stop stop-color="#0C009A"/>
<stop offset="1"/>
</linearGradient>
<linearGradient id="paint1_linear" x1="43.8521" y1="69.2929" x2="21.2169" y2="5.45826" gradientUnits="userSpaceOnUse">
<stop/>
<stop offset="1" stop-color="#0012B7"/>
</linearGradient>
<linearGradient id="paint2_linear" x1="38.144" y1="99.0902" x2="23.868" y2="-0.0634463" gradientUnits="userSpaceOnUse">
<stop offset="0.015625"/>
<stop offset="0.833333" stop-color="#00FFCB"/>
</linearGradient>
<linearGradient id="paint3_linear" x1="180.925" y1="13.8262" x2="180.925" y2="81.1079" gradientUnits="userSpaceOnUse">
<stop stop-color="#0014C6"/>
<stop offset="1" stop-color="#00042D"/>
</linearGradient>
</defs>
</svg>
