<svg width="282" height="97" viewBox="0 0 282 97" fill="none" xmlns="http://www.w3.org/2000/svg">
<path d="M44.6854 58.5563C44.6854 56.3166 42.878 54.4945 40.656 54.4945C40.5709 54.4945 40.4866 54.498 40.403 54.5032V55.0176C40.4869 55.0116 40.5705 55.0046 40.656 55.0046C42.5986 55.0046 44.1789 56.5979 44.1789 58.5563C44.1789 60.5146 42.5986 62.1077 40.656 62.1077C40.5989 62.1077 40.5435 62.102 40.4873 62.0989V62.2908V62.6134V63.6232H39.236V64.3035H42.0759V63.6232H40.9932V62.6024C43.0581 62.4289 44.6854 60.6811 44.6854 58.5563Z" fill="#00CAB2"/>
<path d="M35.0673 33.7909L34.8471 34.2342H33.7866V34.6652H34.0395C34.0395 34.6652 34.0552 34.7558 34.0775 34.8765L34.7265 34.8343L35.1287 34.6353L35.2337 34.2364L35.7606 34.2001L35.9663 33.8652L35.4839 33.7866L35.0673 33.7909Z" fill="#00CAB2"/>
<path d="M31.6571 34.2729L31.6068 34.8765L32.5959 34.8038L32.6967 34.1973L32.1038 33.7866L31.6571 34.2729Z" fill="#00CAB2"/>
<path d="M75.1903 50.2942C75.1804 49.1937 75.1244 48.1034 75.0214 47.0274C74.6711 43.4434 73.8168 40.009 72.5292 36.79C72.4364 36.5525 72.3483 36.309 72.2478 36.0715C70.5368 32.0297 68.1327 28.3504 65.195 25.1741C65.004 24.9663 64.8083 24.7629 64.6123 24.5597C64.0542 23.9834 63.4887 23.4189 62.894 22.8803C56.2109 16.7933 47.331 13.0786 37.6013 13.0786C27.7898 13.0786 18.846 16.862 12.1434 23.0384C10.5815 24.4778 9.14712 26.0519 7.84354 27.7337C2.93267 34.0884 0 42.0469 0 50.6799C0 71.4117 16.868 88.2809 37.6013 88.2809C52.1867 88.2809 64.8476 79.9284 71.08 67.7596C72.4117 65.1623 73.4498 62.3887 74.1496 59.4805C74.3261 58.746 74.4827 58.0018 74.6149 57.2503C74.9943 55.1145 75.2023 52.9185 75.2023 50.6775C75.1975 50.5526 75.1903 50.424 75.1903 50.2942ZM68.113 35.266L68.3284 35.0213C68.6148 35.5769 68.8865 36.1388 69.1388 36.7127L68.7788 36.698L68.1106 36.7897V35.2658H68.113V35.266ZM62.6784 28.7029L62.6832 27.0235C63.2757 27.6502 63.8438 28.2952 64.3872 28.9648L63.7114 29.9722L61.3418 29.9487L61.1951 29.4555L62.6784 28.7029ZM17.3221 24.5328V24.4692H18.0737L18.1421 24.2109H19.3721V24.7482L19.0158 25.2193H17.3194V24.5327H17.3221V24.5328ZM18.5253 26.2097C18.5253 26.2097 19.2792 26.0812 19.3453 26.0812C19.4078 26.0812 19.3453 26.834 19.3453 26.834L17.6428 26.9417L17.3195 26.5526L18.5253 26.2097ZM70.5075 41.1338H67.7558L66.0762 39.8865L64.3138 40.0568V41.1338H63.7559L63.1558 40.7055L60.0982 39.9321V37.9516L56.2256 38.2513L55.0236 38.8966H53.4887L52.7323 38.8206L50.8669 39.8586V41.8083L47.054 44.561L47.37 45.7373H48.1447L47.9415 46.8572L47.3979 47.058L47.37 49.9832L50.6638 53.7385H52.1005L52.1862 53.5108H54.7664L55.5103 52.8228H56.9743L57.7775 53.6257L59.9536 53.851L59.6672 56.7496L62.0908 61.0224L60.8131 63.4606L60.8987 64.6062L61.9048 65.6075V68.3665L63.2219 70.1389V72.4349H64.3577C58.0272 80.2122 48.3822 85.1891 37.5939 85.1891C18.5657 85.1891 3.08563 69.7128 3.08563 50.6821C3.08563 45.8926 4.06852 41.3271 5.84089 37.179V36.1031L7.07451 34.6051C7.50285 33.7947 7.96196 33.0076 8.45288 32.2379L8.50555 32.8645L7.07472 34.6051C6.63058 35.4446 6.21424 36.3016 5.8411 37.1791V39.1411L7.27193 39.8313V42.5609L8.64882 44.9072L9.76887 45.0774L9.91215 44.2732L8.59636 42.2377L8.33573 40.2597H9.11046L9.43851 42.2978L11.3455 45.0774L10.8546 45.9772L12.0627 47.8301L15.0737 48.5743V48.0885L16.2771 48.2586L16.1646 49.1179L17.1093 49.2918L18.5732 49.6896L20.6381 52.0433L23.2732 52.2415L23.5338 54.392L21.7261 55.6528L21.6438 57.5733L21.3832 58.7507L23.9929 62.0164L24.1924 63.1374C24.1924 63.1374 25.1385 63.392 25.256 63.392C25.3688 63.392 27.3761 64.9147 27.3761 64.9147V70.8193L28.0909 71.0223L27.6075 73.7445L28.8106 75.3529L28.5856 78.0556L30.1791 80.8513L32.2221 82.6358L34.2723 82.6773L34.4729 82.0141L32.9636 80.7439L33.0517 80.1147L33.3197 79.3385L33.3772 78.5502L32.3578 78.5208L31.8437 77.8748L32.6908 77.057L32.8058 76.4428L31.8586 76.171L31.9136 75.5981L33.2624 75.3923L35.3125 74.4081L36.0004 73.1426L38.1486 70.3909L37.6615 68.2391L38.3212 67.0933L40.3015 67.152L41.6346 66.0942L42.0667 61.945L43.55 60.0747L43.8106 58.8728L42.4644 58.4421L41.5744 56.9794L38.5364 56.9489L36.1251 56.0321L36.0126 54.3124L35.2097 52.906L33.0322 52.8755L31.7691 50.8987L30.6528 50.3541L30.5952 50.9563L28.5573 51.0762L27.8133 50.0382L25.6896 49.6073L23.9405 51.6307L21.1877 51.1609L20.9869 48.0579L18.9796 47.714L19.7814 46.1927L19.5513 45.3187L16.911 47.0825L15.2513 46.8793L14.6579 45.5819L15.0238 44.2429L15.9381 42.5562L18.0445 41.4876H22.1157L22.1021 42.7289L23.566 43.4104L23.4485 41.2904L24.5035 40.2292L26.632 38.8301L26.7802 37.8486L28.9015 35.6391L31.1574 34.3882L30.9591 34.2255L32.4879 32.7872L33.0474 32.9353L33.3031 33.256L33.8847 32.6109L34.0279 32.5485L33.3913 32.4579L32.7416 32.2499V31.6256L33.0854 31.3454H33.8395L34.1882 31.4983L34.487 32.1006L34.853 32.0443V31.9929L34.9583 32.0272L36.0161 31.8646L36.1665 31.3457L36.7673 31.4986V32.0605L36.2056 32.4436H36.2095L36.2889 33.0604L38.2094 33.6491C38.2094 33.6491 38.2094 33.6565 38.2142 33.6723L38.6522 33.6344L38.683 32.8044L37.1641 32.113L37.0806 31.7139L38.3389 31.2855L38.3965 30.08L37.0806 29.2784L36.9938 27.2414L35.1858 28.1302H34.5236L34.7 26.5806L32.2374 26.0015L31.2227 26.7714V29.1141L29.3954 29.6944L28.6608 31.2207L27.8691 31.3479V29.3933L26.1494 29.1546L25.2863 28.5927L24.941 27.327L28.0195 25.5277L29.5238 25.0685L29.6756 26.0808L30.5165 26.0355L30.5813 25.5274L31.4591 25.4012L31.4738 25.2239L31.098 25.0684L31.0122 24.5324L32.0905 24.4418L32.7417 23.7648L32.7798 23.7148L32.7872 23.7172L32.9854 23.5116L35.2509 23.2262L36.251 24.0759L33.6242 25.4748L36.9681 26.2643L37.399 25.1456H38.8629L39.377 24.1711L38.344 23.9127V22.6789L35.1079 21.2456L32.8703 21.5038L31.6059 22.1623L31.6918 23.7695L30.3733 23.5687L30.1703 22.6812L31.4359 21.5331L29.1397 21.4205L28.4814 21.6213L28.195 22.396L29.0555 22.5406L28.8842 23.401L27.4228 23.4864L27.1927 24.0607L25.0699 24.119C25.0699 24.119 25.0124 22.9157 24.9219 22.9157C24.8399 22.9157 26.5866 22.8851 26.5866 22.8851L27.8497 21.6526L27.1605 21.3087L26.2462 22.1985L24.7246 22.113L23.797 20.8449H21.8472L19.8116 22.364H21.6759L21.8436 22.9111L21.3575 23.3687L23.4239 23.4275L23.7372 24.1717L21.4127 24.086L21.2978 23.5119L19.8387 23.196L19.0614 22.7677L17.3221 22.7821C23.0199 18.6317 30.0236 16.1751 37.5964 16.1751C46.3198 16.1751 54.2967 19.4359 60.3775 24.7957L59.9712 25.5277L58.3775 26.1518L57.7046 26.8812L57.8611 27.7282L58.6813 27.8432L59.1781 29.0794L60.5907 28.5078L60.8282 30.1638H60.3973L59.2343 29.9913L57.9469 30.2067L56.6982 31.9717L54.9162 32.2495L54.6589 33.7771L55.413 33.9544L55.1926 34.9373L53.4203 34.5813L51.7973 34.9373L51.4519 35.8419L51.7311 37.7403L52.6859 38.1858L54.2892 38.1761L55.3686 38.0782L55.7015 37.219L57.3908 35.0231L58.4999 35.2509L59.5941 34.2607L59.7997 35.0355L62.4924 36.852L62.1644 37.2961L60.9501 37.2311L61.42 37.8922L62.1692 38.0585L63.0454 37.6926L63.0259 36.6387L63.4175 36.4442L63.1042 36.1124L61.3073 35.1098L60.8325 33.7795H62.3283L62.8009 34.2531L64.0933 35.3609L64.1446 36.7023L65.4788 38.1209L65.9735 36.1761L66.8988 35.6716L67.0678 37.2627L67.971 38.253L69.7705 38.2238C70.1203 39.1186 70.4338 40.0279 70.7031 40.9582L70.5075 41.1338ZM20.5057 30.1642L21.4053 29.7336L22.223 29.9293L21.944 31.0273L21.0628 31.3052L20.5057 30.1642ZM25.2988 32.747V33.4571H23.2375L22.4602 33.2405L22.6537 32.7471L23.6441 32.3385H25.0003V32.7471H25.2988V32.747ZM26.2488 33.7373V34.4239L25.7299 34.7568L25.0886 34.8779C25.0886 34.8779 25.0886 33.8449 25.0886 33.737H26.2488V33.7373ZM25.6673 33.4571V32.6367L26.3759 33.283L25.6673 33.4571ZM25.9902 35.1106V35.78L25.4958 36.2746H24.3979L24.5692 35.5218L25.0881 35.4765L25.1934 35.2181L25.9902 35.1106ZM23.2586 33.7373H24.398L22.9342 35.78L22.3333 35.457L22.4631 34.5964L23.2586 33.7373ZM27.9232 34.8779V35.545H26.8253L26.5267 35.1106V34.4888H26.6123L27.9232 34.8779ZM26.9158 33.9576L27.2267 33.6296L27.753 33.9576L27.3318 34.3065L26.9158 33.9576ZM71.0656 42.8767L71.1731 42.7483C71.222 42.9441 71.2661 43.1399 71.3127 43.3359L71.0656 42.8767Z" fill="url(#paint0_linear)"/>
<path d="M24.8146 71.4563L33.7865 77.3821C33.8067 74.1083 27.8396 61.6531 26.49 58.5968C15.2512 31.8846 23.0183 9.80244 26.1573 0C17.0229 16.8327 14.963 35.4954 15.2988 42.7227L19.5866 50.0872C18.7163 49.4421 16.7488 47.9925 15.8404 47.3547C15.8254 49.7931 18.1395 56.7391 19.2983 59.9072L25.5363 65.3644L20.533 63.0758L24.1403 69.8717L29.028 72.3854L24.8146 71.4563Z" fill="url(#paint1_linear)"/>
<path d="M46.8651 55.1447L39.936 78.472C16.4357 39.8717 22.7326 14.5 26.1573 0C26.4147 2.99648 29.4983 12.6111 30.889 17.0439L28.3912 30.4151L32.8078 22.8413L45.3943 51.2787L40.259 63.4994L46.8651 55.1447Z" fill="url(#paint2_linear)"/>
<path d="M38.5209 90.8062L44.6852 97.0001C44.6971 95.0244 44.1499 90.2263 43.6385 86.8493C38.1625 76.6704 32.6966 64.8484 28.6525 55.866C19.8283 31.5326 23.5183 15.3705 26.1573 0C16.8932 23.9776 20.7803 45.7862 25.7667 56.9876C32.4321 71.961 35.6965 81.6319 38.5209 90.8062Z" fill="url(#paint3_linear)"/>
<path d="M116.157 37.4324H98.2782V41.6944C98.3677 41.6944 98.4393 41.7299 98.493 41.8009C98.5467 41.8719 98.6094 41.9075 98.6809 41.9075C98.6451 41.9075 99.012 41.8098 99.7816 41.6144C100.551 41.4014 101.437 41.206 102.439 41.0285C103.442 40.8509 104.417 40.7621 105.365 40.7621C107.513 40.7621 109.204 41.0551 110.439 41.6411C111.674 42.2272 112.56 43.0529 113.097 44.1183C113.652 45.1838 113.983 46.3825 114.09 47.7144C114.216 49.0284 114.278 50.8398 114.278 53.1483V63.4036C112.9 62.8708 111.916 62.4801 111.325 62.2315C110.752 61.983 110.314 61.7965 110.01 61.6722C110.01 61.1039 109.893 60.7399 109.661 60.5801C109.07 60.9175 108.408 61.2904 107.674 61.6988C106.94 62.0895 105.983 62.4358 104.802 62.7376C103.62 63.0396 102.216 63.1905 100.587 63.1905C99.0299 63.1905 97.5087 62.9064 96.0232 62.3381C94.5377 61.7699 93.3296 60.9618 92.399 59.9142C91.4863 58.8486 91.0299 57.6499 91.0299 56.3181C91.0299 55.0751 91.6115 53.7787 92.7749 52.4292C93.9382 51.0618 95.4952 49.9341 97.446 49.0463C99.3968 48.1406 101.526 47.6877 103.835 47.6877C105.088 47.6877 106.278 47.8742 107.406 48.2471C108.551 48.6023 109.419 49.0018 110.01 49.4458V46.9952C109.258 46.0362 108.542 45.388 107.862 45.0506C107.182 44.7132 106.117 44.5446 104.667 44.5446C102.788 44.6156 101.303 44.7754 100.211 45.024C99.1373 45.2548 97.974 45.6278 96.7212 46.1428C95.4863 46.64 94.4482 47.0307 93.6071 47.3148V45.3437C93.7324 45.2371 93.9113 45.0862 94.144 44.8908C94.3766 44.6955 94.5288 44.5534 94.6004 44.4646C94.6899 44.3758 94.7435 44.3225 94.7614 44.3048V37.4324H89.2581V34.236H116.157V37.4324ZM110.01 54.2937C110.01 53.4768 109.079 52.7931 107.218 52.2427C105.374 51.6922 104.068 51.4169 103.298 51.4169C101.348 51.4169 99.5757 51.8254 97.983 52.6422C96.3901 53.4413 95.1373 54.3825 94.2245 55.4657C93.3118 56.549 92.8554 57.4369 92.8554 58.1295C93.0701 58.8576 93.616 59.3636 94.493 59.6478C95.3699 59.9319 96.3006 60.074 97.2849 60.074C99.1104 60.074 100.793 59.8342 102.332 59.3547C103.889 58.8753 105.24 58.2893 106.386 57.5967C107.549 56.9041 108.444 56.2382 109.07 55.5989C109.697 54.9597 110.01 54.5245 110.01 54.2937ZM139.835 37.4324H126.252V58.8753C126.252 59.4968 126.466 60.1006 126.896 60.6866C127.343 61.2726 127.826 61.5656 128.345 61.5656C131.012 61.5656 132.345 58.8309 132.345 53.3614L137.742 56.4247C136.865 58.3603 135.665 59.9763 134.144 61.2726C132.64 62.5512 130.654 63.1905 128.184 63.1905C126.949 63.1728 125.813 62.8531 124.775 62.2315C123.755 61.5923 122.94 60.7843 122.332 59.8076C121.723 58.8131 121.419 57.8276 121.419 56.8508V37.4324H115.808V34.236H121.419V25.2859L126.252 28.6155V34.236H139.835V37.4324ZM168.963 37.4324H147.298V45.4502C147.692 45.024 148.139 44.5534 148.64 44.0384C149.142 43.5234 149.714 43.0351 150.358 42.5734C151.003 42.1117 151.791 41.7121 152.721 41.3748C153.652 41.0374 154.699 40.8686 155.862 40.8686C158.063 40.8686 160.006 41.4724 161.688 42.68C163.388 43.8697 164.712 45.397 165.66 47.2616C166.61 49.1261 167.083 50.9641 167.083 52.7754C167.083 54.6577 166.627 56.398 165.714 57.9963C164.802 59.5945 163.889 60.8375 162.976 61.7255C162.064 62.6133 161.384 63.226 160.936 63.5635L156.534 60.953C156.784 60.5978 157.321 60.0029 158.144 59.1683C158.967 58.3337 159.692 57.5079 160.318 56.6911C160.945 55.8742 161.499 54.8531 161.983 53.6278C162.466 52.4025 162.717 51.0262 162.734 49.499C162.734 47.6344 162.287 46.125 161.392 44.9707C160.498 43.7987 159.262 43.2127 157.687 43.2127C156.22 43.2659 154.654 43.7898 152.989 44.7843C151.343 45.7787 149.956 47.0218 148.828 48.5135C147.701 50.0051 147.138 51.4436 147.138 52.8287V63.4036L142.117 60.7399V37.4324H139.164V34.236H142.117C142.117 31.3592 141.706 28.7843 140.882 26.5113C140.059 24.2205 139.101 22.3381 138.01 20.8642C136.918 19.3903 135.979 18.2982 135.191 17.5878C134.386 16.8775 133.804 16.4069 133.446 16.1761L138.869 16.1228C140.175 16.8331 141.482 18.1383 142.789 20.0385C144.113 21.9208 145.195 24.1494 146.036 26.7244C146.877 29.2815 147.298 31.7854 147.298 34.236H168.963V37.4324ZM194.815 37.4324H176.936V41.6944C177.026 41.6944 177.097 41.7299 177.151 41.8009C177.204 41.8719 177.267 41.9075 177.339 41.9075C177.303 41.9075 177.67 41.8009 178.439 41.5878C179.227 41.3748 180.122 41.1883 181.123 41.0285C182.126 40.8509 183.093 40.7621 184.024 40.7621C186.171 40.7621 187.862 41.0551 189.097 41.6411C190.332 42.2272 191.218 43.0529 191.755 44.1183C192.31 45.1838 192.641 46.3825 192.748 47.7144C192.873 49.0284 192.936 50.8398 192.936 53.1483V63.6699C191.952 63.2792 191.066 62.8975 190.278 62.5246C189.49 62.1339 188.945 61.8498 188.641 61.6722C188.641 61.0861 188.533 60.7222 188.318 60.5801C187.728 60.9175 187.066 61.2904 186.332 61.6988C185.598 62.0895 184.64 62.4358 183.459 62.7376C182.278 63.0396 180.873 63.1905 179.245 63.1905C177.687 63.1905 176.166 62.9064 174.681 62.3381C173.195 61.7699 171.988 60.9618 171.057 59.9142C170.144 58.8486 169.688 57.6499 169.688 56.3181C169.688 55.0751 170.269 53.7787 171.432 52.4292C172.596 51.0618 174.153 49.9341 176.104 49.0463C178.055 48.1406 180.184 47.6877 182.493 47.6877C183.746 47.6877 184.936 47.8742 186.063 48.2471C187.191 48.6023 188.05 49.0018 188.641 49.4458V46.9952C187.943 46.0718 187.244 45.4324 186.546 45.0773C185.849 44.7221 184.775 44.5446 183.325 44.5446C181.446 44.6156 179.961 44.7754 178.869 45.024C177.795 45.2548 176.632 45.6278 175.379 46.1428C174.144 46.64 173.105 47.0307 172.265 47.3148V45.3437C172.39 45.2371 172.569 45.0862 172.801 44.8908C173.034 44.6955 173.186 44.5534 173.258 44.4646C173.347 44.3758 173.401 44.3225 173.419 44.3048V37.4324H167.915V34.236H194.815V37.4324ZM188.641 54.2937C188.641 53.4768 187.719 52.7931 185.875 52.2427C184.032 51.6922 182.726 51.4169 181.956 51.4169C180.005 51.4169 178.224 51.8254 176.614 52.6422C175.021 53.4591 173.768 54.4091 172.855 55.4924C171.943 56.5579 171.486 57.4369 171.486 58.1295C171.736 58.8753 172.292 59.3903 173.15 59.6744C174.027 59.9408 174.958 60.074 175.942 60.074C177.768 60.074 179.459 59.8342 181.016 59.3547C182.591 58.8753 183.951 58.2893 185.097 57.5967C186.242 56.8864 187.119 56.2116 187.728 55.5723C188.337 54.933 188.641 54.5068 188.641 54.2937ZM221.392 37.4324H194.252V34.236H221.392V37.4324ZM219.164 46.9952C219.164 48.1494 218.501 49.3392 217.177 50.5645C215.871 51.7898 214.77 52.6155 213.876 53.0418L209.848 48.5135C211.352 48.3714 212.614 47.8386 213.634 46.9152C214.672 45.974 215.191 45.0506 215.191 44.145C215.191 43.7721 214.896 43.3281 214.305 42.8132C213.714 42.2804 212.945 42.014 211.996 42.014C210.833 42.014 209.518 42.5468 208.05 43.6123C206.583 44.6778 205.33 46.0539 204.292 47.741C203.271 49.428 202.762 51.1239 202.762 52.8287V64.1228L197.607 61.4591V41.7476H202.815V43.7721C202.959 43.63 203.486 43.3015 204.399 42.7865C205.312 42.2715 206.367 41.8098 207.567 41.4014C208.784 40.9752 210.01 40.7621 211.245 40.7621C212.282 40.7621 213.419 41.0196 214.654 41.5345C215.906 42.0318 216.972 42.7599 217.849 43.7188C218.726 44.6778 219.164 45.7698 219.164 46.9952ZM255.352 34.236L255.298 37.4324H252.56V42.5201C252.56 42.5734 251.799 43.9319 250.278 46.5956C248.775 49.2416 247.03 52.296 245.043 55.7588C243.056 59.2038 241.634 61.681 240.775 63.1905C240.185 63.1905 239.298 62.8708 238.117 62.2315C236.954 61.5745 235.755 60.6511 234.52 59.4613C233.285 58.2537 232.265 56.8775 231.459 55.3325C230.672 53.7699 230.278 52.1006 230.278 50.3248C230.278 49.1705 230.43 48.256 230.734 47.5811C231.039 46.9063 231.442 46.2404 231.942 45.5834C232.443 44.9086 232.694 44.3936 232.694 44.0384C232.694 43.4169 232.167 43.1062 231.11 43.1062C230.449 43.1062 229.876 43.2749 229.392 43.6123C228.927 43.9497 228.158 44.731 227.084 45.9563L223.62 42.8398C224.283 42.2893 224.891 41.8719 225.446 41.5878C226.019 41.3037 226.556 41.1172 227.056 41.0285C227.576 40.9219 228.301 40.8509 229.231 40.8153C232.113 40.8153 234.045 41.5434 235.03 42.9996C236.014 44.438 236.506 46.276 236.506 48.5135C236.506 48.691 236.426 49.508 236.264 50.9641C236.122 52.4025 236.05 53.6633 236.05 54.7466C236.05 57.5523 236.542 59.0795 237.526 59.3281C238.063 59.3281 238.726 58.6533 239.513 57.3037L247.701 42.6267V37.4324H220.506V34.236H255.352ZM281.258 37.4324H263.379V41.6944C263.468 41.6944 263.54 41.7299 263.593 41.8009C263.647 41.8719 263.709 41.9075 263.782 41.9075C263.746 41.9075 264.113 41.8009 264.882 41.5878C265.67 41.3748 266.565 41.1883 267.566 41.0285C268.569 40.8509 269.535 40.7621 270.466 40.7621C272.613 40.7621 274.305 41.0551 275.54 41.6411C276.774 42.2272 277.661 43.0529 278.198 44.1183C278.752 45.1838 279.084 46.3825 279.191 47.7144C279.316 49.0284 279.379 50.8398 279.379 53.1483V63.6699C278.395 63.2792 277.508 62.8975 276.721 62.5246C275.933 62.1339 275.388 61.8498 275.084 61.6722C275.084 61.0861 274.976 60.7222 274.761 60.5801C274.17 60.9175 273.509 61.2904 272.775 61.6988C272.041 62.0895 271.083 62.4358 269.902 62.7376C268.721 63.0396 267.316 63.1905 265.688 63.1905C264.13 63.1905 262.609 62.9064 261.124 62.3381C259.638 61.7699 258.43 60.9618 257.499 59.9142C256.587 58.8486 256.131 57.6499 256.131 56.3181C256.131 55.0751 256.712 53.7787 257.875 52.4292C259.039 51.0618 260.596 49.9341 262.547 49.0463C264.498 48.1406 266.627 47.6877 268.936 47.6877C270.189 47.6877 271.379 47.8742 272.506 48.2471C273.634 48.6023 274.493 49.0018 275.084 49.4458V46.9952C274.386 46.0718 273.687 45.4324 272.989 45.0773C272.292 44.7221 271.218 44.5446 269.768 44.5446C267.889 44.6156 266.403 44.7754 265.311 45.024C264.238 45.2548 263.074 45.6278 261.822 46.1428C260.587 46.64 259.548 47.0307 258.707 47.3148V45.3437C258.833 45.2371 259.011 45.0862 259.244 44.8908C259.477 44.6955 259.629 44.5534 259.701 44.4646C259.79 44.3758 259.844 44.3225 259.862 44.3048V37.4324H254.358V34.236H281.258V37.4324ZM275.084 54.2937C275.084 53.4768 274.162 52.7931 272.318 52.2427C270.475 51.6922 269.168 51.4169 268.399 51.4169C266.448 51.4169 264.667 51.8254 263.057 52.6422C261.464 53.4591 260.211 54.4091 259.298 55.4924C258.386 56.5579 257.929 57.4369 257.929 58.1295C258.179 58.8753 258.735 59.3903 259.593 59.6744C260.47 59.9408 261.401 60.074 262.385 60.074C264.211 60.074 265.902 59.8342 267.459 59.3547C269.034 58.8753 270.394 58.2893 271.54 57.5967C272.685 56.8864 273.562 56.2116 274.17 55.5723C274.78 54.933 275.084 54.5068 275.084 54.2937Z" fill="url(#paint4_linear)"/>
<defs>
<linearGradient id="paint0_linear" x1="37.6012" y1="13.0786" x2="37.6012" y2="88.2809" gradientUnits="userSpaceOnUse">
<stop offset="0.0001" stop-color="#007D7D"/>
<stop offset="0.489583" stop-color="#0E70CA"/>
<stop offset="0.9999" stop-color="#00A3FF"/>
</linearGradient>
<linearGradient id="paint1_linear" x1="11.8228" y1="8.77132" x2="25.5765" y2="62.0519" gradientUnits="userSpaceOnUse">
<stop stop-color="#0327FF"/>
<stop offset="1" stop-color="#45F4F4"/>
</linearGradient>
<linearGradient id="paint2_linear" x1="46.7041" y1="72.5007" x2="23.7675" y2="5.12092" gradientUnits="userSpaceOnUse">
<stop stop-color="#00FFFF"/>
<stop offset="1" stop-color="#0C24FF"/>
</linearGradient>
<linearGradient id="paint3_linear" x1="39.834" y1="103.352" x2="24.3173" y2="0.122301" gradientUnits="userSpaceOnUse">
<stop offset="0.015625" stop-color="#11E2EF"/>
<stop offset="0.479167" stop-color="#032939"/>
<stop offset="0.875" stop-color="#01BDB7"/>
<stop offset="1" stop-color="#00FFF0"/>
</linearGradient>
<linearGradient id="paint4_linear" x1="185.686" y1="14.949" x2="185.686" y2="82.2307" gradientUnits="userSpaceOnUse">
<stop stop-color="#0AFFC4"/>
<stop offset="1" stop-color="#243AFF"/>
</linearGradient>
</defs>
</svg>
